<?xml version="1.0" encoding="UTF-8"?>
<svg xmlns="http://www.w3.org/2000/svg" version="1.1" viewBox="112 109 168 232">
  <defs>
    <style>.cls-2{fill:#17a54a}</style>
  </defs>
  <polygon class="cls-2" points="268.56 147.78 279.66 128.43 268.45 109.15 246.15 109.21 235.05 128.56 246.26 147.84 268.56 147.78"/>
  <path class="cls-2" d="M236.8,153.75l-34.84,60.74-7.65-13.16c-1.24-2.13-1.25-4.76-.02-6.9l8.22-14.33c.59-1.03.9-2.19.89-3.37v-1.77c-.01-1.18-.33-2.33-.92-3.35l-10.3-17.73,11.1-19.35,22.3-.06,11.21,19.29Z"/>
  <path class="cls-2" d="M278.18,178.86l-11.1,19.35-20.5.06c-1.18,0-2.33.32-3.35.91l-1.54.89c-1.02.59-1.87,1.45-2.46,2.47l-8.22,14.33c-1.23,2.14-3.5,3.46-5.96,3.47l-15.22.05,34.84-60.74,22.31-.06,11.2,19.28Z"/>
  <path class="cls-2" d="M195.67,219.87l-34.84,60.74-7.78-13.39c-1.16-1.99-1.16-4.44-.02-6.44l7.91-13.8c.87-1.52,1.33-3.25,1.32-5v-.03c0-1.75-.47-3.46-1.35-4.97l-7.15-12.32c-1.68-2.89-1.69-6.45-.02-9.34l7.64-13.33c.5-.88.77-1.87.77-2.89v-2.28c0-1.01-.28-2.01-.79-2.89l-10.43-17.95,11.1-19.35,22.31-.06,9.26,15.93c1.21,2.08,1.21,4.64.02,6.72l-8.25,14.38c-.6,1.05-.92,2.24-.91,3.45v1.68c0,1.21.33,2.4.94,3.45l10.28,17.69Z"/>
  <path class="cls-2" d="M278.31,226.08l-11.1,19.35-20.76.06c-1.01,0-2.01.27-2.89.78l-1.97,1.15c-.88.51-1.6,1.24-2.11,2.12l-7.64,13.33c-1.66,2.89-4.74,4.68-8.07,4.69l-14.25.05c-1.75,0-3.46.47-4.97,1.35l-.03.02c-1.52.88-2.78,2.15-3.65,3.67l-7.91,13.8c-1.14,1.99-3.27,3.23-5.57,3.23l-15.49.05,34.84-60.74,20.46-.05c1.21,0,2.4-.33,3.45-.94l1.45-.84c1.05-.61,1.91-1.48,2.52-2.53l8.25-14.38c1.19-2.08,3.41-3.37,5.81-3.38l18.42-.05,11.21,19.29Z"/>
  <path class="cls-2" d="M154.54,285.99l-11.1,19.35-16.39.05c-3.67.01-7.06-1.94-8.9-5.1l-5.37-9.24c-1.77-3.05-1.78-6.81-.03-9.87l6.93-12.08c.87-1.53,1.33-3.25,1.33-5.01h0c0-1.76-.47-3.49-1.36-5.01l-7.86-13.51c-1.24-2.13-1.25-4.77-.02-6.91l7.78-13.56c.88-1.53,1.33-3.26,1.33-5.01h0c0-1.76-.47-3.49-1.36-5.01l-9.85-16.97,11.1-19.35,22.3-.06,9.54,16.4c1.04,1.78,1.04,3.99.02,5.78l-8.19,14.28c-.82,1.42-1.24,3.03-1.24,4.67v.37c0,1.64.44,3.25,1.26,4.67l8.2,14.13c1.08,1.86,1.08,4.15.02,6.01l-8.03,14.01c-.87,1.53-1.33,3.25-1.33,5.01h0c0,1.76.47,3.49,1.36,5.01l9.86,16.96Z"/>
  <path class="cls-2" d="M278.43,273.29l-10.68,18.62c-.26.45-.74.74-1.27.74l-18.77.06c-1.76,0-3.49.47-5.01,1.36h0c-1.52.88-2.78,2.15-3.66,3.68l-7.78,13.56c-1.23,2.14-3.5,3.46-5.97,3.47l-15.63.04c-1.76,0-3.49.47-5.01,1.36h0c-1.52.88-2.78,2.15-3.66,3.68l-6.93,12.08c-1.75,3.06-5.01,4.95-8.53,4.96l-10.68.03c-3.67.01-7.06-1.93-8.9-5.1l-8.23-14.17,11.1-19.35,19.62-.05c1.76,0,3.49-.47,5.01-1.36h0c1.52-.88,2.78-2.15,3.66-3.68l8.03-14.01c1.07-1.86,3.05-3.01,5.19-3.02l16.33-.05c1.64,0,3.25-.44,4.67-1.27l.32-.18c1.42-.82,2.59-2.01,3.41-3.43l8.19-14.28c1.03-1.79,2.93-2.9,4.99-2.9l18.97-.05,11.21,19.28Z"/>
</svg>
